<svg xmlns="http://www.w3.org/2000/svg" viewBox="0 0 64 64">
  <!-- カレンダー連携のアイコン: 青地に白いカレンダー、中に同期の矢印 -->
  <rect width="64" height="64" rx="14" fill="#1a73e8"/>
  <rect x="12" y="15" width="40" height="37" rx="6" fill="#ffffff"/>
  <path d="M12 21a6 6 0 0 1 6-6h28a6 6 0 0 1 6 6v5H12z" fill="#d2e3fc"/>
  <rect x="21" y="10" width="5" height="10" rx="2.5" fill="#ffffff" stroke="#1a73e8" stroke-width="2"/>
  <rect x="38" y="10" width="5" height="10" rx="2.5" fill="#ffffff" stroke="#1a73e8" stroke-width="2"/>
  <path d="M22.5 37a9.5 9.5 0 0 1 16.5-5.5" fill="none" stroke="#1a73e8" stroke-width="3.6" stroke-linecap="round" stroke-linejoin="round"/>
  <path d="M40 27.5v4.5h-4.5" fill="none" stroke="#1a73e8" stroke-width="3.6" stroke-linecap="round" stroke-linejoin="round"/>
  <path d="M41.5 40a9.5 9.5 0 0 1-16.5 5.5" fill="none" stroke="#1a73e8" stroke-width="3.6" stroke-linecap="round" stroke-linejoin="round"/>
  <path d="M24 49.5V45h4.5" fill="none" stroke="#1a73e8" stroke-width="3.6" stroke-linecap="round" stroke-linejoin="round"/>
</svg>
